# xmcd CD database file
#
# Track frame offsets:
#	150
#	12768
#	28072
#	46340
#	60463
#	75530
#	90168
#	102096
#	115014
#	128127
#	145339
#	159570
#	173324
#	187795
#	202290
#	216580
#	229884
#
# Disc length: 3252 seconds
#
# Revision: 0
# Processed by: cddbd v1.5.1PL2 Copyright (c) Steve Scherf et al.
# Submitted via: CDex 1.51
#
DISCID=d70cb211
DTITLE=Nina Hagen - Irgendwo auf der Welt
DYEAR=2006
DGENRE=Jazz
TTITLE0=Flat Floot Floogie
TTITLE1=But not for me
TTITLE2=Day in, Day out
TTITLE3=Deep in a Dream
TTITLE4=Der Wind hat mir ein Lied erzählt
TTITLE5=Für mich solls rote Rosen regnen
TTITLE6=Halli, Hallo
TTITLE7=Means that you're Grand (Bei mir bist du scheen)
TTITLE8=Roter Mohn
TTITLE9=Serenade in Blue
TTITLE10=Somewhere over the Rainbow
TTITLE11=Yes, Sir
TTITLE12=Happiness
TTITLE13=Irgendwo auf der Welt
TTITLE14=Summertime
TTITLE15=An einem Tag im Frühling
TTITLE16=And the Angels sing
EXTD=YEAR: 2006
EXTT0=
EXTT1=
EXTT2=
EXTT3=
EXTT4=
EXTT5=
EXTT6=
EXTT7=
EXTT8=
EXTT9=
EXTT10=
EXTT11=
EXTT12=
EXTT13=
EXTT14=
EXTT15=
EXTT16=
PLAYORDER=
